<svg xmlns="http://www.w3.org/2000/svg" xmlns:xlink="http://www.w3.org/1999/xlink" aria-hidden="true" role="img"
    width="72pts" height="72pts" preserveAspectRatio="xMidYMid meet" viewBox="0 0 72.000000 72.000000">
    <!-- <svg version="1.0" xmlns="http://www.w3.org/2000/svg" width="32" height="32" viewBox="0 0 72.000000 72.000000"
    preserveAspectRatio="xMidYMid meet"> -->

    <g transform="translate(0.000000,72.000000) scale(0.100000,-0.100000)" fill="#a510b3" stroke="none">
        <path d="M461 628 c-5 -13 -10 -17 -15 -10 -7 12 -36 5 -36 -8 0 -5 9 -12 20
-15 13 -4 20 -15 20 -30 0 -31 -12 -38 -46 -24 -39 14 -117 2 -156 -25 -135
-91 -103 -321 50 -367 50 -15 114 -5 195 30 48 21 48 21 41 58 -4 21 -8 39 -9
41 -1 1 -26 -9 -56 -23 -83 -38 -150 -30 -184 22 -18 27 -29 22 115 62 l105
29 -3 33 c-1 18 -14 54 -28 78 -15 27 -21 47 -15 49 6 2 11 12 11 23 0 21 11
24 27 8 11 -11 33 -5 33 10 0 4 -11 13 -25 19 -21 10 -24 17 -19 37 8 31 -13
34 -25 3z m-72 -184 c12 -15 21 -30 21 -35 0 -4 -26 -15 -57 -24 -32 -9 -66
-18 -75 -21 -15 -4 -18 1 -18 30 0 71 86 104 129 50z" />
    </g>
</svg>